<svg width="65" height="65" viewBox="0 0 65 65" fill="none" xmlns="http://www.w3.org/2000/svg">
<path d="M62.436 42.4319L48.6205 28.616C47.061 27.0565 44.5325 27.0565 42.9729 28.616L9.19023 62.3997M9.18795 2.49585H55.778C59.4539 2.49585 62.4338 5.4758 62.4338 9.15176V55.7431C62.4338 59.4191 59.4539 62.399 55.778 62.399H9.18795C5.5121 62.399 2.53223 59.4191 2.53223 55.7431V9.15176C2.53223 5.4758 5.5121 2.49585 9.18795 2.49585ZM25.825 20.8002C25.825 23.5572 23.5901 25.7922 20.8332 25.7922C18.0763 25.7922 15.8414 23.5572 15.8414 20.8002C15.8414 18.0433 18.0763 15.8083 20.8332 15.8083C23.5901 15.8083 25.825 18.0433 25.825 20.8002Z" stroke="white" stroke-width="4" stroke-linecap="round" stroke-linejoin="round"/>
</svg>
